<svg xmlns="http://www.w3.org/2000/svg" width="32" height="32" viewBox="0 0 32 32"><g transform="translate(-.033 -1020.362)"><path fill="none" stroke="#f05542" stroke-linecap="round" stroke-linejoin="round" d="m 2.5303301,1047.682 4.1193021,-7.1872 m 1.7914511,-0.2407 4.0308817,2.3013 m 1.79546,-0.3508 4.407054,-5.7749 m 1.61349,0.061 4.366377,5.1895 m 1.841236,0.7989 2.996185,-0.62"/><path fill="none" stroke="#25b39e" stroke-linecap="round" stroke-linejoin="round" d="m 2.5058045,1043.4744 3.9724831,1.9579 m 1.528274,-0.4699 4.7507184,-10.347 m 1.603029,-0.2055 4.398204,5.7661 m 1.767034,0.7233 3.499254,-2.7171 m 1.982776,-0.2237 3.551803,1.6436"/><path fill="none" stroke="#2b4255" d="M2.5 1022.3622l0 27.9964M30 1049.8622l-28 0"/><circle cx="7.5" cy="1039.862" r="1" fill="none" stroke="#f05542" stroke-dashoffset="1.1" stroke-linecap="round" stroke-linejoin="round" style="isolation:auto;mix-blend-mode:normal" color="#000" overflow="visible"/><circle cx="7.5" cy="1045.862" r="1" fill="none" stroke="#25b39e" stroke-dashoffset="1.1" stroke-linecap="round" stroke-linejoin="round" color="#000" overflow="visible" style="isolation:auto;mix-blend-mode:normal"/><circle cx="13.5" cy="1042.862" r="1" fill="none" stroke="#f05542" stroke-dashoffset="1.1" stroke-linecap="round" stroke-linejoin="round" style="isolation:auto;mix-blend-mode:normal" color="#000" overflow="visible"/><circle cx="19.5" cy="1035.862" r="1" fill="none" stroke="#f05542" stroke-dashoffset="1.1" stroke-linecap="round" stroke-linejoin="round" color="#000" overflow="visible" style="isolation:auto;mix-blend-mode:normal"/><circle cx="25.5" cy="1042.362" r="1" fill="none" stroke="#f05542" stroke-dashoffset="1.1" stroke-linecap="round" stroke-linejoin="round" style="isolation:auto;mix-blend-mode:normal" color="#000" overflow="visible"/><circle cx="13.5" cy="1033.862" r="1" fill="none" stroke="#25b39e" stroke-dashoffset="1.1" stroke-linecap="round" stroke-linejoin="round" style="isolation:auto;mix-blend-mode:normal" color="#000" overflow="visible"/><circle cx="19.5" cy="1040.862" r="1" fill="none" stroke="#25b39e" stroke-dashoffset="1.1" stroke-linecap="round" stroke-linejoin="round" color="#000" overflow="visible" style="isolation:auto;mix-blend-mode:normal"/><circle cx="25" cy="1037.862" r="1" fill="none" stroke="#25b39e" stroke-dashoffset="1.1" stroke-linecap="round" stroke-linejoin="round" style="isolation:auto;mix-blend-mode:normal" color="#000" overflow="visible"/></g></svg>